<svg xmlns="http://www.w3.org/2000/svg" xmlns:xlink="http://www.w3.org/1999/xlink" width="250" zoomAndPan="magnify" viewBox="0 0 187.5 52.499999" height="70" preserveAspectRatio="xMidYMid meet" version="1.0"><defs><g/><clipPath id="b4fea58949"><path d="M 5.289062 6.351562 L 37.511719 6.351562 L 37.511719 45.652344 L 5.289062 45.652344 Z M 5.289062 6.351562 " clip-rule="nonzero"/></clipPath><clipPath id="e1301fabf6"><path d="M 37.132812 35.875 L 27.4375 26 L 37.132812 16.125 C 37.390625 15.871094 37.519531 15.5625 37.511719 15.199219 L 37.511719 7.019531 C 37.511719 6.574219 37.289062 6.351562 36.847656 6.351562 L 24.75 6.351562 C 24.375 6.34375 24.054688 6.476562 23.796875 6.75 L 12.269531 18.484375 L 18.121094 24.449219 L 17.105469 21.492188 L 26.234375 12.203125 L 33.203125 12.203125 L 19.644531 26 L 32.925781 39.511719 L 25.945312 39.511719 L 8.785156 22.039062 L 5.339844 25.535156 C 5.042969 25.84375 5.042969 26.15625 5.339844 26.46875 L 23.796875 45.253906 C 24.058594 45.523438 24.375 45.65625 24.75 45.652344 L 36.847656 45.652344 C 37.289062 45.652344 37.511719 45.429688 37.511719 44.984375 L 37.511719 36.800781 C 37.519531 36.441406 37.390625 36.132812 37.132812 35.875 " clip-rule="evenodd"/></clipPath></defs><g clip-path="url(#b4fea58949)"><g clip-path="url(#e1301fabf6)"><path fill="#f7f7f7" d="M 37.511719 6.351562 L 5.289062 6.351562 L 5.289062 45.652344 L 37.511719 45.652344 Z M 37.511719 6.351562 " fill-opacity="1" fill-rule="nonzero"/></g></g><g fill="#f7f7f7" fill-opacity="1"><g transform="translate(37.516556, 28.078735)"><g><path d="M 1.6875 0 L 1.6875 -14.046875 L 7.25 -14.046875 C 8.726562 -14.046875 10.019531 -13.75 11.125 -13.15625 C 12.238281 -12.570312 13.101562 -11.75 13.71875 -10.6875 C 14.332031 -9.632812 14.640625 -8.410156 14.640625 -7.015625 C 14.640625 -5.617188 14.332031 -4.394531 13.71875 -3.34375 C 13.101562 -2.289062 12.238281 -1.46875 11.125 -0.875 C 10.019531 -0.289062 8.726562 0 7.25 0 Z M 4.875 -2.921875 L 7.1875 -2.921875 C 8.007812 -2.921875 8.734375 -3.09375 9.359375 -3.4375 C 9.992188 -3.78125 10.488281 -4.257812 10.84375 -4.875 C 11.195312 -5.488281 11.375 -6.203125 11.375 -7.015625 C 11.375 -7.847656 11.195312 -8.566406 10.84375 -9.171875 C 10.488281 -9.785156 9.992188 -10.257812 9.359375 -10.59375 C 8.722656 -10.9375 7.984375 -11.109375 7.140625 -11.109375 L 4.875 -11.109375 Z M 4.875 -2.921875 "/></g></g></g><g fill="#f7f7f7" fill-opacity="1"><g transform="translate(53.009644, 28.078735)"><g><path d="M 1.6875 0 L 1.6875 -14.046875 L 10.90625 -14.046875 L 10.90625 -11.359375 L 4.859375 -11.359375 L 4.859375 -8.453125 L 10.375 -8.453125 L 10.375 -5.78125 L 4.859375 -5.78125 L 4.859375 -2.703125 L 11.140625 -2.703125 L 11.140625 0 Z M 1.6875 0 "/></g></g></g><g fill="#f7f7f7" fill-opacity="1"><g transform="translate(65.171313, 28.078735)"><g><path d="M 5.578125 0 L 0.1875 -14.046875 L 3.609375 -14.046875 L 5.484375 -9.046875 L 7.15625 -4.59375 L 10.6875 -14.046875 L 14.109375 -14.046875 L 8.703125 0 Z M 5.578125 0 "/></g></g></g><g fill="#f7f7f7" fill-opacity="1"><g transform="translate(79.460272, 28.078735)"><g><path d="M 2.6875 0.21875 C 2.132812 0.21875 1.6875 0.0507812 1.34375 -0.28125 C 1 -0.625 0.828125 -1.054688 0.828125 -1.578125 C 0.828125 -2.109375 1 -2.546875 1.34375 -2.890625 C 1.6875 -3.234375 2.132812 -3.40625 2.6875 -3.40625 C 3.238281 -3.40625 3.6875 -3.234375 4.03125 -2.890625 C 4.375 -2.546875 4.546875 -2.109375 4.546875 -1.578125 C 4.546875 -1.054688 4.375 -0.625 4.03125 -0.28125 C 3.6875 0.0507812 3.238281 0.21875 2.6875 0.21875 Z M 2.6875 0.21875 "/></g></g></g><g fill="#f7f7f7" fill-opacity="1"><g transform="translate(84.818632, 28.078735)"><g><path d="M 6.578125 0.28125 C 5.398438 0.28125 4.382812 0.0859375 3.53125 -0.296875 C 2.6875 -0.679688 2.03125 -1.234375 1.5625 -1.953125 C 1.101562 -2.671875 0.875 -3.507812 0.875 -4.46875 L 4.015625 -4.46875 C 4.015625 -3.800781 4.242188 -3.28125 4.703125 -2.90625 C 5.160156 -2.53125 5.78125 -2.34375 6.5625 -2.34375 C 7.226562 -2.34375 7.753906 -2.472656 8.140625 -2.734375 C 8.535156 -2.992188 8.734375 -3.359375 8.734375 -3.828125 C 8.734375 -4.328125 8.5 -4.726562 8.03125 -5.03125 C 7.5625 -5.34375 6.832031 -5.601562 5.84375 -5.8125 C 4.195312 -6.164062 2.976562 -6.695312 2.1875 -7.40625 C 1.394531 -8.113281 1 -9.035156 1 -10.171875 C 1 -11.453125 1.46875 -12.460938 2.40625 -13.203125 C 3.34375 -13.953125 4.617188 -14.328125 6.234375 -14.328125 C 7.347656 -14.328125 8.3125 -14.132812 9.125 -13.75 C 9.945312 -13.375 10.582031 -12.835938 11.03125 -12.140625 C 11.476562 -11.453125 11.703125 -10.632812 11.703125 -9.6875 L 8.625 -9.6875 C 8.625 -10.320312 8.414062 -10.816406 8 -11.171875 C 7.59375 -11.535156 7.019531 -11.71875 6.28125 -11.71875 C 5.613281 -11.71875 5.082031 -11.585938 4.6875 -11.328125 C 4.300781 -11.066406 4.109375 -10.703125 4.109375 -10.234375 C 4.109375 -9.804688 4.320312 -9.441406 4.75 -9.140625 C 5.175781 -8.847656 5.925781 -8.578125 7 -8.328125 C 8.75 -7.910156 10.007812 -7.351562 10.78125 -6.65625 C 11.5625 -5.96875 11.953125 -5.066406 11.953125 -3.953125 C 11.953125 -2.628906 11.472656 -1.59375 10.515625 -0.84375 C 9.566406 -0.09375 8.253906 0.28125 6.578125 0.28125 Z M 6.578125 0.28125 "/></g></g></g><g fill="#f7f7f7" fill-opacity="1"><g transform="translate(97.68271, 28.078735)"><g><path d="M 5.0625 0 L 5.0625 -11.046875 L 0.609375 -11.046875 L 0.609375 -14.046875 L 12.703125 -14.046875 L 12.703125 -11.046875 L 8.25 -11.046875 L 8.25 0 Z M 5.0625 0 "/></g></g></g><g fill="#f7f7f7" fill-opacity="1"><g transform="translate(110.988301, 28.078735)"><g><path d="M 1.6875 0 L 1.6875 -14.046875 L 10.90625 -14.046875 L 10.90625 -11.359375 L 4.859375 -11.359375 L 4.859375 -8.453125 L 10.375 -8.453125 L 10.375 -5.78125 L 4.859375 -5.78125 L 4.859375 -2.703125 L 11.140625 -2.703125 L 11.140625 0 Z M 1.6875 0 "/></g></g></g><g fill="#f7f7f7" fill-opacity="1"><g transform="translate(123.14997, 28.078735)"><g><path d="M 1.6875 0 L 1.6875 -14.046875 L 7.1875 -14.046875 C 8.320312 -14.046875 9.300781 -13.835938 10.125 -13.421875 C 10.957031 -13.003906 11.601562 -12.414062 12.0625 -11.65625 C 12.53125 -10.894531 12.765625 -10 12.765625 -8.96875 C 12.765625 -7.945312 12.53125 -7.054688 12.0625 -6.296875 C 11.601562 -5.535156 10.957031 -4.945312 10.125 -4.53125 C 9.300781 -4.113281 8.320312 -3.90625 7.1875 -3.90625 L 4.875 -3.90625 L 4.875 0 Z M 4.859375 -6.65625 L 6.921875 -6.65625 C 7.753906 -6.65625 8.394531 -6.851562 8.84375 -7.25 C 9.289062 -7.644531 9.515625 -8.210938 9.515625 -8.953125 C 9.515625 -9.679688 9.289062 -10.242188 8.84375 -10.640625 C 8.394531 -11.046875 7.753906 -11.25 6.921875 -11.25 L 4.859375 -11.25 Z M 4.859375 -6.65625 "/></g></g></g><g fill="#f7f7f7" fill-opacity="1"><g transform="translate(136.4957, 28.078735)"><g><path d="M 10.375 0 L 10.375 -5.65625 L 4.875 -5.65625 L 4.875 0 L 1.6875 0 L 1.6875 -14.046875 L 4.875 -14.046875 L 4.875 -8.640625 L 10.375 -8.640625 L 10.375 -14.046875 L 13.5625 -14.046875 L 13.5625 0 Z M 10.375 0 "/></g></g></g><g fill="#f7f7f7" fill-opacity="1"><g transform="translate(151.747967, 28.078735)"><g><path d="M 1.6875 0 L 1.6875 -14.046875 L 10.90625 -14.046875 L 10.90625 -11.359375 L 4.859375 -11.359375 L 4.859375 -8.453125 L 10.375 -8.453125 L 10.375 -5.78125 L 4.859375 -5.78125 L 4.859375 -2.703125 L 11.140625 -2.703125 L 11.140625 0 Z M 1.6875 0 "/></g></g></g><g fill="#f7f7f7" fill-opacity="1"><g transform="translate(163.909631, 28.078735)"><g><path d="M 1.6875 0 L 1.6875 -14.046875 L 4.390625 -14.046875 L 10.59375 -5.5 L 10.59375 -14.046875 L 13.765625 -14.046875 L 13.765625 0 L 11.046875 0 L 4.859375 -8.609375 L 4.859375 0 Z M 1.6875 0 "/></g></g></g><g fill="#f7f7f7" fill-opacity="1"><g transform="translate(39.811772, 39.568455)"><g><path d="M 3.28125 0.125 C 2.757812 0.125 2.304688 0.0351562 1.921875 -0.140625 C 1.535156 -0.316406 1.234375 -0.566406 1.015625 -0.890625 C 0.804688 -1.210938 0.695312 -1.585938 0.6875 -2.015625 L 1.265625 -2.015625 C 1.296875 -1.515625 1.492188 -1.125 1.859375 -0.84375 C 2.222656 -0.570312 2.695312 -0.4375 3.28125 -0.4375 C 3.84375 -0.4375 4.285156 -0.550781 4.609375 -0.78125 C 4.929688 -1.007812 5.09375 -1.320312 5.09375 -1.71875 C 5.09375 -2.070312 4.941406 -2.359375 4.640625 -2.578125 C 4.347656 -2.804688 3.859375 -3 3.171875 -3.15625 C 2.335938 -3.34375 1.726562 -3.585938 1.34375 -3.890625 C 0.96875 -4.203125 0.78125 -4.613281 0.78125 -5.125 C 0.78125 -5.664062 0.988281 -6.097656 1.40625 -6.421875 C 1.820312 -6.753906 2.394531 -6.921875 3.125 -6.921875 C 3.875 -6.921875 4.460938 -6.738281 4.890625 -6.375 C 5.328125 -6.019531 5.554688 -5.515625 5.578125 -4.859375 L 5 -4.859375 C 4.96875 -5.335938 4.785156 -5.707031 4.453125 -5.96875 C 4.128906 -6.226562 3.6875 -6.359375 3.125 -6.359375 C 2.570312 -6.359375 2.140625 -6.242188 1.828125 -6.015625 C 1.523438 -5.796875 1.375 -5.5 1.375 -5.125 C 1.375 -4.78125 1.519531 -4.5 1.8125 -4.28125 C 2.101562 -4.0625 2.601562 -3.867188 3.3125 -3.703125 C 4.175781 -3.503906 4.785156 -3.242188 5.140625 -2.921875 C 5.503906 -2.609375 5.6875 -2.210938 5.6875 -1.734375 C 5.6875 -1.160156 5.46875 -0.707031 5.03125 -0.375 C 4.601562 -0.0390625 4.019531 0.125 3.28125 0.125 Z M 3.28125 0.125 "/></g></g></g><g fill="#f7f7f7" fill-opacity="1"><g transform="translate(46.194105, 39.568455)"><g><path d="M 4.125 0.125 C 3.4375 0.125 2.828125 -0.0195312 2.296875 -0.3125 C 1.773438 -0.613281 1.363281 -1.03125 1.0625 -1.5625 C 0.769531 -2.09375 0.625 -2.707031 0.625 -3.40625 C 0.625 -4.09375 0.769531 -4.703125 1.0625 -5.234375 C 1.363281 -5.765625 1.773438 -6.175781 2.296875 -6.46875 C 2.828125 -6.769531 3.4375 -6.921875 4.125 -6.921875 C 4.820312 -6.921875 5.429688 -6.769531 5.953125 -6.46875 C 6.484375 -6.175781 6.894531 -5.765625 7.1875 -5.234375 C 7.488281 -4.703125 7.640625 -4.09375 7.640625 -3.40625 C 7.640625 -2.707031 7.488281 -2.09375 7.1875 -1.5625 C 6.894531 -1.03125 6.484375 -0.613281 5.953125 -0.3125 C 5.429688 -0.0195312 4.820312 0.125 4.125 0.125 Z M 1.21875 -3.40625 C 1.21875 -2.820312 1.34375 -2.304688 1.59375 -1.859375 C 1.84375 -1.421875 2.1875 -1.078125 2.625 -0.828125 C 3.0625 -0.585938 3.5625 -0.46875 4.125 -0.46875 C 4.707031 -0.46875 5.21875 -0.585938 5.65625 -0.828125 C 6.09375 -1.078125 6.429688 -1.421875 6.671875 -1.859375 C 6.921875 -2.304688 7.046875 -2.820312 7.046875 -3.40625 C 7.046875 -3.988281 6.921875 -4.5 6.671875 -4.9375 C 6.429688 -5.375 6.09375 -5.71875 5.65625 -5.96875 C 5.21875 -6.21875 4.707031 -6.34375 4.125 -6.34375 C 3.5625 -6.34375 3.0625 -6.21875 2.625 -5.96875 C 2.1875 -5.71875 1.84375 -5.375 1.59375 -4.9375 C 1.34375 -4.5 1.21875 -3.988281 1.21875 -3.40625 Z M 1.21875 -3.40625 "/></g></g></g><g fill="#f7f7f7" fill-opacity="1"><g transform="translate(54.451311, 39.568455)"><g><path d="M 1.09375 0 L 1.09375 -6.796875 L 4.84375 -6.796875 L 4.84375 -6.25 L 1.6875 -6.25 L 1.6875 -3.578125 L 4.59375 -3.578125 L 4.59375 -3.03125 L 1.6875 -3.03125 L 1.6875 0 Z M 1.09375 0 "/></g></g></g><g fill="#f7f7f7" fill-opacity="1"><g transform="translate(59.891353, 39.568455)"><g><path d="M 2.71875 0 L 2.71875 -6.234375 L 0.375 -6.234375 L 0.375 -6.796875 L 5.640625 -6.796875 L 5.640625 -6.234375 L 3.296875 -6.234375 L 3.296875 0 Z M 2.71875 0 "/></g></g></g><g fill="#f7f7f7" fill-opacity="1"><g transform="translate(65.904541, 39.568455)"><g><path d="M 2.453125 0 L 0.234375 -6.796875 L 0.859375 -6.796875 L 1.859375 -3.703125 L 2.765625 -0.921875 L 3.78125 -3.703125 L 4.90625 -6.796875 L 5.46875 -6.796875 L 7.625 -0.90625 L 8.53125 -3.703125 L 9.53125 -6.796875 L 10.15625 -6.796875 L 7.921875 0 L 7.359375 0 L 5.1875 -5.90625 L 3.984375 -2.625 L 3.015625 0 Z M 2.453125 0 "/></g></g></g><g fill="#f7f7f7" fill-opacity="1"><g transform="translate(76.289186, 39.568455)"><g><path d="M 0.21875 0 L 3.03125 -6.796875 L 3.59375 -6.796875 L 6.421875 0 L 5.796875 0 L 5.078125 -1.703125 L 1.546875 -1.703125 L 0.84375 0 Z M 1.78125 -2.25 L 4.859375 -2.25 L 3.3125 -6 Z M 1.78125 -2.25 "/></g></g></g><g fill="#f7f7f7" fill-opacity="1"><g transform="translate(82.924093, 39.568455)"><g><path d="M 1.09375 0 L 1.09375 -6.796875 L 3.609375 -6.796875 C 4.078125 -6.796875 4.476562 -6.707031 4.8125 -6.53125 C 5.144531 -6.363281 5.40625 -6.117188 5.59375 -5.796875 C 5.78125 -5.484375 5.875 -5.113281 5.875 -4.6875 C 5.875 -4.125 5.71875 -3.65625 5.40625 -3.28125 C 5.101562 -2.914062 4.679688 -2.691406 4.140625 -2.609375 L 5.984375 0 L 5.28125 0 L 3.453125 -2.5625 L 1.6875 -2.5625 L 1.6875 0 Z M 1.6875 -3.125 L 3.5625 -3.125 C 4.09375 -3.125 4.507812 -3.257812 4.8125 -3.53125 C 5.125 -3.8125 5.28125 -4.195312 5.28125 -4.6875 C 5.28125 -5.164062 5.125 -5.539062 4.8125 -5.8125 C 4.507812 -6.09375 4.09375 -6.234375 3.5625 -6.234375 L 1.6875 -6.234375 Z M 1.6875 -3.125 "/></g></g></g><g fill="#f7f7f7" fill-opacity="1"><g transform="translate(89.568715, 39.568455)"><g><path d="M 1.09375 0 L 1.09375 -6.796875 L 5.109375 -6.796875 L 5.109375 -6.25 L 1.6875 -6.25 L 1.6875 -3.734375 L 4.84375 -3.734375 L 4.84375 -3.203125 L 1.6875 -3.203125 L 1.6875 -0.546875 L 5.203125 -0.546875 L 5.203125 0 Z M 1.09375 0 "/></g></g></g><g fill="#f7f7f7" fill-opacity="1"><g transform="translate(95.484757, 39.568455)"><g/></g></g><g fill="#f7f7f7" fill-opacity="1"><g transform="translate(98.088204, 39.568455)"><g><path d="M 1.09375 0 L 1.09375 -6.796875 L 3.25 -6.796875 C 3.96875 -6.796875 4.59375 -6.65625 5.125 -6.375 C 5.65625 -6.09375 6.0625 -5.695312 6.34375 -5.1875 C 6.632812 -4.6875 6.78125 -4.09375 6.78125 -3.40625 C 6.78125 -2.71875 6.632812 -2.117188 6.34375 -1.609375 C 6.0625 -1.097656 5.65625 -0.703125 5.125 -0.421875 C 4.59375 -0.140625 3.96875 0 3.25 0 Z M 1.6875 -0.5625 L 3.25 -0.5625 C 3.851562 -0.5625 4.375 -0.675781 4.8125 -0.90625 C 5.25 -1.144531 5.585938 -1.472656 5.828125 -1.890625 C 6.066406 -2.316406 6.1875 -2.820312 6.1875 -3.40625 C 6.1875 -3.976562 6.066406 -4.476562 5.828125 -4.90625 C 5.585938 -5.332031 5.242188 -5.660156 4.796875 -5.890625 C 4.359375 -6.117188 3.835938 -6.234375 3.234375 -6.234375 L 1.6875 -6.234375 Z M 1.6875 -0.5625 "/></g></g></g><g fill="#f7f7f7" fill-opacity="1"><g transform="translate(105.490542, 39.568455)"><g><path d="M 1.09375 0 L 1.09375 -6.796875 L 5.109375 -6.796875 L 5.109375 -6.25 L 1.6875 -6.25 L 1.6875 -3.734375 L 4.84375 -3.734375 L 4.84375 -3.203125 L 1.6875 -3.203125 L 1.6875 -0.546875 L 5.203125 -0.546875 L 5.203125 0 Z M 1.09375 0 "/></g></g></g><g fill="#f7f7f7" fill-opacity="1"><g transform="translate(111.406583, 39.568455)"><g><path d="M 2.9375 0 L 0.21875 -6.796875 L 0.84375 -6.796875 L 3.234375 -0.8125 L 4.25 -3.40625 L 5.609375 -6.796875 L 6.234375 -6.796875 L 3.515625 0 Z M 2.9375 0 "/></g></g></g><g fill="#f7f7f7" fill-opacity="1"><g transform="translate(117.847205, 39.568455)"><g><path d="M 1.09375 0 L 1.09375 -6.796875 L 5.109375 -6.796875 L 5.109375 -6.25 L 1.6875 -6.25 L 1.6875 -3.734375 L 4.84375 -3.734375 L 4.84375 -3.203125 L 1.6875 -3.203125 L 1.6875 -0.546875 L 5.203125 -0.546875 L 5.203125 0 Z M 1.09375 0 "/></g></g></g><g fill="#f7f7f7" fill-opacity="1"><g transform="translate(123.763247, 39.568455)"><g><path d="M 1.09375 0 L 1.09375 -6.796875 L 1.6875 -6.796875 L 1.6875 -0.5625 L 5.140625 -0.5625 L 5.140625 0 Z M 1.09375 0 "/></g></g></g><g fill="#f7f7f7" fill-opacity="1"><g transform="translate(129.23243, 39.568455)"><g><path d="M 4.125 0.125 C 3.4375 0.125 2.828125 -0.0195312 2.296875 -0.3125 C 1.773438 -0.613281 1.363281 -1.03125 1.0625 -1.5625 C 0.769531 -2.09375 0.625 -2.707031 0.625 -3.40625 C 0.625 -4.09375 0.769531 -4.703125 1.0625 -5.234375 C 1.363281 -5.765625 1.773438 -6.175781 2.296875 -6.46875 C 2.828125 -6.769531 3.4375 -6.921875 4.125 -6.921875 C 4.820312 -6.921875 5.429688 -6.769531 5.953125 -6.46875 C 6.484375 -6.175781 6.894531 -5.765625 7.1875 -5.234375 C 7.488281 -4.703125 7.640625 -4.09375 7.640625 -3.40625 C 7.640625 -2.707031 7.488281 -2.09375 7.1875 -1.5625 C 6.894531 -1.03125 6.484375 -0.613281 5.953125 -0.3125 C 5.429688 -0.0195312 4.820312 0.125 4.125 0.125 Z M 1.21875 -3.40625 C 1.21875 -2.820312 1.34375 -2.304688 1.59375 -1.859375 C 1.84375 -1.421875 2.1875 -1.078125 2.625 -0.828125 C 3.0625 -0.585938 3.5625 -0.46875 4.125 -0.46875 C 4.707031 -0.46875 5.21875 -0.585938 5.65625 -0.828125 C 6.09375 -1.078125 6.429688 -1.421875 6.671875 -1.859375 C 6.921875 -2.304688 7.046875 -2.820312 7.046875 -3.40625 C 7.046875 -3.988281 6.921875 -4.5 6.671875 -4.9375 C 6.429688 -5.375 6.09375 -5.71875 5.65625 -5.96875 C 5.21875 -6.21875 4.707031 -6.34375 4.125 -6.34375 C 3.5625 -6.34375 3.0625 -6.21875 2.625 -5.96875 C 2.1875 -5.71875 1.84375 -5.375 1.59375 -4.9375 C 1.34375 -4.5 1.21875 -3.988281 1.21875 -3.40625 Z M 1.21875 -3.40625 "/></g></g></g><g fill="#f7f7f7" fill-opacity="1"><g transform="translate(137.489636, 39.568455)"><g><path d="M 1.09375 0 L 1.09375 -6.796875 L 3.25 -6.796875 C 4.039062 -6.796875 4.65625 -6.597656 5.09375 -6.203125 C 5.539062 -5.816406 5.765625 -5.269531 5.765625 -4.5625 C 5.765625 -3.863281 5.539062 -3.316406 5.09375 -2.921875 C 4.65625 -2.523438 4.039062 -2.328125 3.25 -2.328125 L 1.6875 -2.328125 L 1.6875 0 Z M 1.6875 -2.875 L 3.25 -2.875 C 4.53125 -2.875 5.171875 -3.4375 5.171875 -4.5625 C 5.171875 -5.675781 4.53125 -6.234375 3.25 -6.234375 L 1.6875 -6.234375 Z M 1.6875 -2.875 "/></g></g></g><g fill="#f7f7f7" fill-opacity="1"><g transform="translate(143.706825, 39.568455)"><g><path d="M 1.09375 0 L 1.09375 -6.796875 L 5.109375 -6.796875 L 5.109375 -6.25 L 1.6875 -6.25 L 1.6875 -3.734375 L 4.84375 -3.734375 L 4.84375 -3.203125 L 1.6875 -3.203125 L 1.6875 -0.546875 L 5.203125 -0.546875 L 5.203125 0 Z M 1.09375 0 "/></g></g></g><g fill="#f7f7f7" fill-opacity="1"><g transform="translate(149.622867, 39.568455)"><g><path d="M 1.09375 0 L 1.09375 -6.796875 L 3.609375 -6.796875 C 4.078125 -6.796875 4.476562 -6.707031 4.8125 -6.53125 C 5.144531 -6.363281 5.40625 -6.117188 5.59375 -5.796875 C 5.78125 -5.484375 5.875 -5.113281 5.875 -4.6875 C 5.875 -4.125 5.71875 -3.65625 5.40625 -3.28125 C 5.101562 -2.914062 4.679688 -2.691406 4.140625 -2.609375 L 5.984375 0 L 5.28125 0 L 3.453125 -2.5625 L 1.6875 -2.5625 L 1.6875 0 Z M 1.6875 -3.125 L 3.5625 -3.125 C 4.09375 -3.125 4.507812 -3.257812 4.8125 -3.53125 C 5.125 -3.8125 5.28125 -4.195312 5.28125 -4.6875 C 5.28125 -5.164062 5.125 -5.539062 4.8125 -5.8125 C 4.507812 -6.09375 4.09375 -6.234375 3.5625 -6.234375 L 1.6875 -6.234375 Z M 1.6875 -3.125 "/></g></g></g></svg>